<svg xmlns="http://www.w3.org/2000/svg" viewBox="0 0 1255.6 792.4"><title>bed</title><path d="M267.8 310.8c64.8 0 117.3-51.4 117.3-114.8S332.6 81.2 267.8 81.2 150.5 132.6 150.5 196 203 310.8 267.8 310.8zM521 163.5h468.8c68.8 0 109.3 43.3 109.3 101.3v166H521V163.5z"/><path d="M393.4 222.9v99.6H213.2c-87 .3-87.2 109.8 0 109.8h236.3c34.5 0 56.1-27.3 56.1-58.1V222.9c0-82.9-112.2-82.9-112.2 0z"/><path d="M128.1 67.8C128.1-22.6 0-22.6 0 67.8v724.7h131V605.3h996.5V791h128.1V231.3c0-95.4-129.5-95.4-129.5 0v223.4h-998V67.8z"/></svg>
