<svg id="Layer_1" xmlns="http://www.w3.org/2000/svg" viewBox="0 0 355 435"><style>.st0{fill:#fff}</style><title>bus</title><path id="main" d="M80 380v30c0 13.8-11.2 25-25 25s-25-11.2-25-25v-30H0V196L18 63.7C23.3 42.6 37.9 28 61.7 20c50.4-13.3 89-20 115.8-20s65.4 6.7 115.8 20c27.8 8 42.3 22.6 43.7 43.7L355 196v184h-30v30c0 13.8-11.2 25-25 25s-25-11.2-25-25v-30H80z"/><path id="windshield" class="st0" d="M64 76c-2.5 0-17.5 0-20 20L31.5 196c-1.3 10.7 3.3 16 14 16h264s16 0 14-16L311 96c-1.7-13.3-8.3-20-20-20H64z"/><path id="sign" class="st0" d="M105 33h145c6.1 0 11 4.9 11 11s-4.9 11-11 11H105c-6.1 0-11-4.9-11-11s4.9-11 11-11z"/><circle id="headlightL" class="st0" cx="55" cy="298.5" r="25"/><circle id="headlightR" class="st0" cx="300" cy="298.5" r="25"/></svg>
