<svg xmlns="http://www.w3.org/2000/svg" viewBox="0 0 64.45 78.34"><defs><style>.a{fill:#fff}</style></defs><title>cake</title><path class="a" d="M10.75 68.93a5.95 5.95 0 0 1 10.74 0 6 6 0 0 1 10.74 0 6 6 0 0 1 10.74 0 6 6 0 0 1 10.74 0 6 6 0 0 1 5.37-3.39 5.82 5.82 0 0 1 2.71.68v-3.47a5.75 5.75 0 0 0 2.65-4.91 5.37 5.37 0 1 0-10.73-.18 5.37 5.37 0 1 0-10.73 0 5.37 5.37 0 1 0-10.73 0 5.37 5.37 0 1 0-10.73 0 5.37 5.37 0 1 0-10.74 0 5.38 5.38 0 1 0-10.74.18 5.75 5.75 0 0 0 2.66 4.91v3.47a5.79 5.79 0 0 1 2.71-.68 6 6 0 0 1 5.34 3.39z"/><path class="a" d="M54.43 71.8a.71.71 0 0 1-.71.69.73.73 0 0 1-.72-.69 4.66 4.66 0 1 0-9.31 0 .715.715 0 0 1-1.43 0 4.66 4.66 0 1 0-9.31 0 .72.72 0 0 1-1.43 0 4.66 4.66 0 1 0-9.31 0 .715.715 0 0 1-1.43 0 4.66 4.66 0 1 0-9.31 0 .72.72 0 0 1-1.43 0 4.8 4.8 0 0 0-4.66-4.83 4.45 4.45 0 0 0-2.71.93v9.57a.86.86 0 0 0 .87.87h57.41a.87.87 0 0 0 .87-.87V67.9a4.46 4.46 0 0 0-2.71-.93 4.79 4.79 0 0 0-4.68 4.83zM14.1 38.15a5 5 0 0 1 9.07 0 5 5 0 0 1 9.07 0 5 5 0 0 1 9.07 0 5 5 0 0 1 9.06 0 5.08 5.08 0 0 1 4.53-2.85 5 5 0 0 1 2.29.57v-2.93a4.87 4.87 0 0 0 2.24-4.15 4.54 4.54 0 1 0-9.06-.14 4.53 4.53 0 1 0-9.05 0 4.53 4.53 0 1 0-9.06 0 4.53 4.53 0 1 0-9.06 0 4.53 4.53 0 1 0-9.06 0 4.53 4.53 0 1 0-9.06.14 4.87 4.87 0 0 0 2.24 4.15v2.93a4.85 4.85 0 0 1 2.3-.58 5.08 5.08 0 0 1 4.48 2.86z"/><path class="a" d="M50.97 40.54a.6.6 0 0 1-.6.59.61.61 0 0 1-.6-.59 3.93 3.93 0 1 0-7.86 0 .605.605 0 0 1-1.21 0 3.93 3.93 0 1 0-7.86 0 .605.605 0 0 1-1.21 0 3.93 3.93 0 1 0-7.86 0 .605.605 0 0 1-1.21 0 3.93 3.93 0 1 0-7.86 0 .6.6 0 0 1-1.2 0 4.05 4.05 0 0 0-3.93-4.08 3.76 3.76 0 0 0-2.3.79v8.08a.72.72 0 0 0 .73.73h48.45a.73.73 0 0 0 .73-.73v-8.08a3.76 3.76 0 0 0-2.29-.79 4 4 0 0 0-3.92 4.08zM18.55 10.7a3.79 3.79 0 0 1 6.84 0 3.8 3.8 0 0 1 6.84 0 3.79 3.79 0 0 1 6.84 0 3.8 3.8 0 0 1 6.84 0 3.83 3.83 0 0 1 3.42-2.15 3.74 3.74 0 0 1 1.73.43V6.77a3.65 3.65 0 0 0 1.69-3.12 3.43 3.43 0 1 0-6.84-.11 3.42 3.42 0 1 0-6.83 0 3.42 3.42 0 1 0-6.83 0 3.42 3.42 0 1 0-6.84 0 3.42 3.42 0 1 0-6.83 0 3.42 3.42 0 1 0-6.84.11 3.66 3.66 0 0 0 1.69 3.13V9a3.66 3.66 0 0 1 1.73-.43 3.84 3.84 0 0 1 3.39 2.13z"/><path class="a" d="M46.37 12.53a.44.44 0 0 1-.45.43.45.45 0 0 1-.46-.43 3 3 0 1 0-5.93 0 .45.45 0 0 1-.45.43.45.45 0 0 1-.46-.43 3 3 0 1 0-5.94 0 .44.44 0 0 1-.45.43.45.45 0 0 1-.46-.43 3 3 0 1 0-5.94 0 .44.44 0 0 1-.45.43.45.45 0 0 1-.46-.43 3 3 0 1 0-5.94 0 .455.455 0 0 1-.91 0 3.06 3.06 0 0 0-3-3.08 2.81 2.81 0 0 0-1.73.6v6.1a.55.55 0 0 0 .55.55h36.58a.55.55 0 0 0 .55-.55v-6.1a2.82 2.82 0 0 0-1.73-.6 3.06 3.06 0 0 0-2.92 3.08z"/><path class="a" d="M31.4 14.79h1.65v17.9H31.4zM31.4 43.18h1.65v17.91H31.4z"/></svg>