<svg xmlns="http://www.w3.org/2000/svg" viewBox="0 0 77.13 74.5"><defs><style>.a{fill:#fff}</style></defs><title>glasses</title><path class="a" d="M10.42 70.89l7.1-26.47c5.65.38 13.33-11.34 17.55-27.06a82.86 82.86 0 0 0 2.34-12.29L18.53 0a82.94 82.94 0 0 0-4.12 11.83C10.2 27.54 11 41.53 16.09 44.04l-7.1 26.47c-4.87-1.27-8.82-1.83-9-1.27s3.93 2.2 9.13 3.59 9.54 2 9.69 1.46-3.54-2.06-8.39-3.4zM68.14 70.51l-7.09-26.47c5.08-2.52 5.88-16.5 1.67-32.21A82.24 82.24 0 0 0 58.6 0L39.72 5.07a82.19 82.19 0 0 0 2.34 12.29c4.21 15.72 11.89 27.44 17.55 27.06l7.1 26.47c-4.85 1.35-8.56 2.83-8.4 3.39s4.49-.07 9.69-1.46 9.28-3 9.12-3.59-4.11 0-8.98 1.28z"/></svg>