<svg xmlns="http://www.w3.org/2000/svg" viewBox="0 0 89.53 67.15"><defs><style>.a{fill:#fff}</style></defs><title>rings</title><path class="a" d="M64.53 14.55l2.08 6.92a19.55 19.55 0 1 0 5.35 2.57l6.71-2.69a25.89 25.89 0 1 1-14.14-6.8zM62.1 2.62L69.56 0l-.13 6.15-7.33-3.53z"/><path class="a" d="M78.99 12.82l-7.02 7.38-2.83 2.99.56-4.08 1.38-10.09 7.91 3.8zM71.42.11l6.09 2.93-6.21 3.07.12-6zM61.22 4.28l8.1 3.89-1.41 10.26-.75 5.48-1.88-6.22-4.06-13.41zM79.64 4.07l6.04 2.9-4.56 3.85-1.48-6.75zM86.92 8.35l2.61 7.47-7.29-3.51 4.68-3.96zM72.45 7.61l5.48-2.69 1.29 5.94-6.77-3.25zM69.89 25.1l3.72-3.91 7.14-7.53 8.04 3.87-13.01 5.2-5.89 2.37zM0 40.2a27 27 0 1 1 27 27 27 27 0 0 1-27-27zm6.12 0a20.84 20.84 0 1 0 20.84-20.84A20.87 20.87 0 0 0 6.16 40.2z"/></svg>